<svg xmlns="http://www.w3.org/2000/svg" width="256" height="256"><path fill="#1976D2" fill-opacity=".153" fill-rule="evenodd" d="M0 128.004v128.004l128.25-.254 128.25-.254.254-127.75L257.008 0H0zm.485.496c0 70.4.119 99.053.265 63.672s.146-92.98 0-128S.485 58.1.485 128.5"/><path fill="#1976D2" fill-opacity=".023" fill-rule="evenodd" d="M198 .617C198 1.796 200.496 6 201.196 6c.481 0 .393.9-.196 2s-.68 2-.202 2 .869 1.35.869 3-.375 3-.834 3-.84-.562-.848-1.25q-.016-1.25-.985.25c-.838 1.297-.971 1.275-.985-.167-.008-.916.525-1.846 1.184-2.066.738-.246.525-.659-.551-1.072-1.048-.402-1.506-.275-1.141.316.988 1.599-1.221 1.132-2.983-.63-.891-.891-1.922-1.316-2.293-.946-.37.371-.165.988.456 1.372.622.384 1.323 2.272 1.558 4.195s.807 4.371 1.271 5.438c.552 1.269.436 2.076-.336 2.333-1.432.478-1.538 3.69-.204 6.182.772 1.444.564 1.932-1 2.341-1.087.284-1.976.061-1.976-.497 0-.557-.562-.783-1.25-.502-5.034 2.058-4.815 2.141-3.148-1.201 1.793-3.594 1.767-3.584 3.827-1.525 1.428 1.429 1.571 1.338 1.571-1 0-1.551-.562-2.571-1.417-2.571-.779 0-1.679-.563-2-1.25-.443-.951-.718-.964-1.148-.056-.31.656-1.21.946-2 .643-1.682-.646-1.746-.286-.523 2.931.977 2.569-.562 6.469-1.571 3.982-.542-1.335-3.351-1.757-3.326-.5.038 1.848 1.789 3.262 3.315 2.677 1.225-.47 1.67-.095 1.67 1.407 0 1.126.45 2.326 1 2.666s1 .104 1-.524c0-1.644 2.472-.59 2.593 1.106.217 3.01.469 3.368 1.369 1.946.797-1.261 1.025-1.225 1.591.25.802 2.09 2.447 2.279 2.447.281 0-1.792 1.66-2.918 2.44-1.656.318.515-.104 1.618-.938 2.453-.94.939-1.134 1.754-.51 2.139 1.475.912 1.255 4.756-.242 4.245-.687-.234-1.119-1.341-.958-2.46.17-1.184-.412-2.304-1.393-2.68-.927-.356-1.733-.524-1.792-.374s-.631 1.219-1.272 2.374c-.966 1.743-.837 2.382.761 3.75 1.06.908 2.822 1.65 3.915 1.65 2.404 0 2.693 3.153.492 5.354-.824.824-1.243 2.16-.932 2.971s.085 1.77-.503 2.133c-2.001 1.237-1.075 3.344 1.932 4.392 1.659.579 3 1.766 3 2.657 0 .886.403 1.362.895 1.058.493-.305 1.164.147 1.493 1.004s.985 1.319 1.458 1.026c.472-.292 1.713.153 2.757.989 1.823 1.46 1.81 1.495-.353.9-3.003-.826-2.837.253.5 3.267 1.512 1.366 2.169 2.168 1.46 1.783-.966-.525-1.127-.052-.642 1.882.689 2.744-.382 3.37-2.368 1.384-.834-.834-1.2-.859-1.2-.083 0 .614.54 1.296 1.199 1.516.751.25.563.644-.5 1.052-.934.359-1.699.216-1.699-.316 0-1.494-1.963-1.149-3.775.663-1.509 1.509-1.466 1.579.572.933 2.302-.731 3.168.879.953 1.773-.687.277-.238.54 1 .583s2.25-.355 2.25-.886c0-1.697 4.083-3.352 5.291-2.144.591.591.744 1.408.338 1.813-.406.406-1.107.141-1.558-.59-.588-.951-1.019-1.007-1.519-.197-.761 1.23 1.464 7.083 2.692 7.083 1.272 0 .839 3.8-.494 4.341-.951.385-.967.708-.069 1.349.876.625.722 1.451-.598 3.2-1.428 1.893-1.562 2.823-.681 4.726.604 1.303 1.885 2.372 2.848 2.376 1.081.005 1.75.773 1.75 2.008 0 1.1-.45 2-1 2s-1 .638-1 1.417-.562 1.679-1.25 2c-1 .466-1 .7 0 1.166 1.524.711 1.668 3.417.183 3.417-.628 0-.807.927-.435 2.25.461 1.638.368 1.866-.342.838-.823-1.193-1.247-1.14-2.727.341-1.451 1.45-1.515 1.9-.37 2.607.761.471.997 1.217.525 1.66s-1.059.242-1.304-.446c-.753-2.108-4.28-1.49-4.28.75q0 2 2 2c1.145 0 2 .667 2 1.559 0 .981-.463 1.281-1.25.808-.86-.517-.825-.227.113.929 1.176 1.45 1.107 1.775-.5 2.369-3.012 1.114-3.428 2.486-2.762 9.085.436 4.312.286 6.25-.485 6.25-.614 0-1.123.787-1.131 1.75-.013 1.496-.157 1.532-.985.25-.582-.901-.975-1.025-.985-.309-.008.655.458 1.483 1.036 1.84.626.387-.081 1.621-1.75 3.056-1.541 1.324-2.951 1.959-3.134 1.41-.434-1.297-4.865-1.294-5.667.003-.34.55.309 1 1.441 1 1.164 0 2.059.652 2.059 1.5 0 .825.45 1.5 1 1.5 1.276 0 .87 2.054-.75 3.798-.687.739-1.25 2.663-1.25 4.273 0 1.937-.508 2.929-1.5 2.929-.825 0-1.5.45-1.5 1s-1.125 1-2.5 1c-2.287 0-3.085 1.296-2.618 4.25.065.412-.332.75-.882.75s-1.045.787-1.1 1.75q-.099 1.75-.9-.75c-.68-2.124-.816-1.86-.9 1.75-.059 2.514-.576 4.25-1.267 4.25-.641 0-.888.279-.547.619.589.589-1.592 3.381-2.641 3.381-.274 0-.74-.788-1.035-1.75-.295-.963-.38.416-.189 3.063.279 3.862.064 4.703-1.089 4.261-.804-.309-1.165-.113-.82.445.338.548-.056 1.668-.877 2.489-1.916 1.916-3.01 1.912-2.273-.008.8-2.086-1.035-1.886-2.294.25-.903 1.533-1.167 1.564-2.126.25-.824-1.13-1.219-1.192-1.601-.25-.279.687-1.37 1.25-2.424 1.25s-1.917.675-1.917 1.5c0 .912-.882 1.469-2.25 1.421-1.238-.043-1.687-.306-1-.583 1.96-.791 1.463-2.338-.75-2.338-1.111 0-2 .667-2 1.5 0 .825-.675 1.5-1.5 1.5s-1.5.614-1.5 1.363c0 1.373-2.221 1.534-5 .364-3.329-1.402-4.713-1.102-7.426 1.61-2.852 2.85-5.024 3.043-11.395 1.01-1.276-.407-1.359-.306-.345.42 1.077.771 1.014 1.078-.332 1.594-2.417.927-2.779.803-2.184-.748.373-.971-.042-1.236-1.385-.885-1.055.276-3.99.191-6.522-.189-3.902-.585-4.528-.985-4.101-2.616.297-1.135.092-1.672-.499-1.306-.551.34-2.112.025-3.468-.701-2.014-1.078-2.844-1.085-4.523-.036-1.474.921-2.362.978-3.138.202-1.481-1.481-4.679-1.367-4.697.168q-.016 1.249-.961-.245c-.815-1.289-1.136-1.234-2.329.397-1.028 1.407-2.066 1.722-4.039 1.226-1.656-.415-2.656-.256-2.656.422 0 .599-1.013.935-2.25.746s-2.137-.895-2-1.57c.138-.674-.2-1.226-.75-1.226-1.443 0-1.233-2.75.25-3.28.727-.259.879-.817.363-1.333s-1.074-.364-1.333.363c-.665 1.86-2.275 1.511-2.311-.5-.051-2.805-4.623-5.509-8.541-5.052-1.885.22-3.428.014-3.428-.458s-.45-.58-1-.24-1-.084-1-.941c0-1.414-1.078-1.963-2.57-1.309-.314.137-1.042-.591-1.617-1.62-.796-1.422-1.237-1.563-1.839-.588-.623 1.009-1.143.931-2.436-.361-1.351-1.351-1.46-2.303-.614-5.368.566-2.048.702-3.969.302-4.269-1.445-1.083-3.28-5.147-2.728-6.041.311-.504 1.227-.662 2.034-.352.807.309 1.468.038 1.468-.603s-.45-.888-1-.548-1-.219-1-1.242c0-3.14-2.404-7.242-4.25-7.25-1.081-.005-1.75-.773-1.75-2.008 0-1.1-.638-2-1.417-2s-1.643-.563-1.921-1.25c-.277-.687-.54.157-.583 1.878-.085 3.348-3.048 6.929-3.825 4.622-.231-.688-1.283-1.25-2.337-1.25-1.695 0-1.917-.762-1.917-6.571 0-4.508-.471-7.043-1.5-8.072-.825-.825-1.493-2.03-1.485-2.678.01-.737.351-.649.91.233.758 1.199 1.135 1.171 2.492-.186 2.204-2.204.337-6.447-2.738-6.221-1.187.088-2.725-.408-3.418-1.101-1.758-1.758-1.572-2.439.489-1.791 1.65.519 1.649.467-.017-.904-1.041-.857-1.511-2.124-1.143-3.082.781-2.036-.264-2.096-2.233-.127-2.253 2.253-3.598 1.805-1.597-.532 1.981-2.314 2.266-4.15.802-5.164-.552-.382-.655-1.044-.229-1.471.427-.426 1.177-.126 1.667.667s1.24 1.093 1.667.667c.426-.427.113-1.194-.696-1.706-1.103-.698-1.141-.934-.15-.946.992-.011.93-.407-.25-1.586-1.776-1.777-2.089-2.867-.55-1.916.617.381.948-.487.836-2.191-.103-1.552.149-4.284.558-6.072.712-3.109.614-3.25-2.252-3.25-1.648 0-3.225-.563-3.504-1.25-.382-.944-.789-.883-1.659.25s-1.277 1.194-1.659.25c-.279-.688-1.772-1.25-3.317-1.25-2.661 0-5.322-3.067-3.258-3.755 1.315-.439.216-6.487-1.543-8.495C6.811 94.138 6.899 94 9.345 94c1.46 0 2.655-.45 2.655-1s-.45-1-1-1-1-2.25-1-5-.285-5-.633-5-1.476.972-2.506 2.16c-1.031 1.189-2.103 1.932-2.382 1.652-.28-.28.722-1.741 2.227-3.246 1.506-1.505 2.9-2.248 3.099-1.651S10.834 82 11.651 82c1.029 0 1.289-.613.849-2-.364-1.147-.18-2 .433-2C13.52 78 14 77.325 14 76.5s-.358-1.5-.796-1.5c-.437 0-.898-1.523-1.023-3.384-.222-3.299 1.743-5.399 3.84-4.103.463.286 1.123.062 1.469-.497.348-.562-.291-1.016-1.431-1.016C14.927 66 14 65.52 14 64.933c0-.613-.853-.797-2-.433-1.419.45-2 .18-2-.933C10 62.705 9.367 62 8.594 62c-.914 0-1.224-.7-.884-2 .645-2.466-.552-2.599-2.268-.252-1.61 2.202-2.546 1.367-1.775-1.583.333-1.273 1.291-2.18 2.21-2.091 4.371.421 5.201-.056 4.911-2.824-.236-2.251.075-2.7 1.712-2.475 1.834.252 1.854.185.242-.804-.967-.594-2.195-.809-2.729-.479s-1.993.069-3.242-.581-1.936-.824-1.527-.386-.266 1.323-1.5 1.967-2.131 1.697-1.994 2.34C1.888 53.474 1.523 54 .941 54c-.597 0-.718.546-.279 1.25.429.688.908 2.072 1.064 3.076.495 3.175 2.255 5.618 3.66 5.079.746-.286 1.625.181 1.954 1.038C7.668 65.299 8.851 66 9.969 66c2.478 0 2.673 1.54.309 2.447-1.475.566-1.511.794-.25 1.591 1.235.782 1.191.934-.278.947C8.787 70.993 8 70.55 8 70s-1.012-.964-2.25-.921-1.687.306-1 .583c.688.278 1.25.944 1.25 1.48 0 .537-.454.695-1.009.352s-1.964-.32-3.132.051c-1.669.529-1.828.861-.741 1.549.76.481.932.883.382.893C.049 74.012-.447 97 1.004 97c.625 0 .784-.549.363-1.25-.51-.849-.209-.81.941.122 2.335 1.895 2.117 3.125-.558 3.143-1.819.013-1.963.201-.75.985.967.625 1.063.975.27.985-.961.012-1.235 16.892-1.258 77.519l-.028 77.504 128.258-.254L256.5 255.5l-.208-125.983c-.188-114.012-.36-126.093-1.803-127.149-1.232-.9-1.298-1.285-.292-1.688.717-.287-8.27-.558-19.97-.601L212.954 0l1.621 2.474c1.488 2.272 1.489 2.604.014 4.08-.884.884-1.371 1.99-1.082 2.458.289.467.068 1.132-.491 1.478-.996.616-1.421-1.269-1.068-4.74.098-.963-.301-1.75-.885-1.75S210 3.076 210 1.948c0-1.866-.545-2.033-6-1.836-3.3.119-6 .346-6 .505m8 2.883c0 1.375.563 2.514 1.25 2.53.694.017.471.484-.5 1.05-.963.561-1.75 1.443-1.75 1.96s.818.24 1.817-.615c1.237-1.059 1.68-2.494 1.387-4.491C207.679.358 206 .027 206 3.5m-16.079.25c-.047 1.045-.282 1.247-.583.5-.278-.687-.944-1.25-1.48-1.25-.537 0-.67.495-.296 1.1.477.773.049.762-1.441-.035-1.829-.979-2.121-.863-2.121.841 0 2.186 1.96 3.99 2.068 1.903.037-.72.556-.296 1.152.941 1.09 2.259 2.78 3.06 2.78 1.317 0-.513 1.784-.77 3.965-.57 3.455.316 3.85.147 3.073-1.317-.491-.924-1.136-2.467-1.434-3.43-.738-2.387-5.575-2.387-5.683 0M198.5 7c.34.55.816 1 1.059 1s.441-.45.441-1-.477-1-1.059-1-.781.45-.441 1M171 12.465c0 .844.113 1.713.25 1.93s-.567 1.298-1.565 2.401c-1.18 1.304-1.443 2.236-.75 2.664 1.315.813 3.289-.288 2.578-1.439-.844-1.366.526-3.88 2.322-4.258 1.374-.289 1.271-.568-.585-1.592-1.895-1.046-2.25-.999-2.25.294M186 13c0 .55.45 1 1 1s1-.45 1-1-.45-1-1-1-1 .45-1 1m9 3.059c0 .582.45.781 1 .441s1-.816 1-1.059-.45-.441-1-.441-1 .477-1 1.059M173.5 17c.34.55.816 1 1.059 1s.441-.45.441-1-.477-1-1.059-1-.781.45-.441 1m-6.767 4.124c.679.684 1.486.991 1.793.683.308-.308-.247-.867-1.233-1.243-1.425-.542-1.54-.428-.56.56M172 21c0 .55.477 1 1.059 1s.781-.45.441-1-.816-1-1.059-1-.441.45-.441 1m20.5 1c-.34.55-.141 1 .441 1S194 22.55 194 22s-.198-1-.441-1-.719.45-1.059 1m4.5 5c0 .55.45 1 1 1s1-.45 1-1-.45-1-1-1-1 .45-1 1m6 7c0 .55.477 1 1.059 1s.781-.45.441-1-.816-1-1.059-1-.441.45-.441 1M1.079 43.583c.048 1.165.285 1.402.604.605.289-.722.253-1.585-.079-1.917s-.568.258-.525 1.312M202 51c0 .55-.635 1-1.412 1-1.529 0-1.484 1.121.2 5 .597 1.375 1.114 1.938 1.149 1.25s.724-1.25 1.532-1.25c.962 0 1.247-.577.826-1.674-.501-1.305-.243-1.52 1.173-.977 1.452.557 1.588.424.682-.668-.623-.751-.799-1.733-.391-2.183.407-.45.179-.495-.509-.099-.687.395-1.25.242-1.25-.34S203.55 50 203 50s-1 .45-1 1M14.5 53c.34.55.816 1 1.059 1s.441-.45.441-1-.477-1-1.059-1-.781.45-.441 1m181.156 8.454c-.321.836.303 1.085 1.935.773 2.915-.557 3.004-.838.474-1.5-1.065-.278-2.149.049-2.409.727M5 67c0 .55.675 1 1.5 1S8 67.55 8 67s-.675-1-1.5-1-1.5.45-1.5 1m93.627 1.468C90.205 71.471 82.623 80.14 81.108 88.5c-.498 2.75-.802 14-.675 25 .197 17.062.504 20.588 2.088 24 1.98 4.265 2.183 4.943 2.364 7.882.204 3.331 6.784 8.435 13.58 10.535 5.308 1.639 9.797 2.012 26.708 2.22 17.576.217 21.071 0 25.827-1.601 6.702-2.257 13-6.274 13-8.291 0-1.273-.243-1.29-1.669-.117-.917.754-.06-.878 1.905-3.628 6.28-8.788 6.954-12.483 6.588-36.124-.29-18.686-.544-21.348-2.419-25.376-2.709-5.818-7.641-10.646-13.905-13.613-4.825-2.285-5.821-2.366-28.5-2.333-17.374.025-24.51.394-27.373 1.414M0 90.5c0 3.758.272 6.561.604 6.229.74-.739.68-11.779-.068-12.526C.241 83.908 0 86.742 0 90.5m99.756.25c-.199.412-.113 9.75.191 20.75l.553 20h6l.291-8.867.29-8.867 2.855.571c1.57.314 4.477.308 6.459-.014 3.311-.537 3.605-.86 3.605-3.954V107h-13V97h13v-7h-9.941c-5.468 0-10.104.338-10.303.75m29.314 2.967c.087 4.691.987 6.783 2.916 6.783 2.643 0 2.34 3.394-.415 4.65L129 106.321l.054 14.59.054 14.589 3.622-4.199c3.396-3.938 3.607-4.578 3.375-10.25l-.246-6.051h6.396c5.417 0 6.734-.359 8.599-2.345 3.914-4.166 2.08-5.655-6.961-5.655H136v-9.916l7.75-.292 7.75-.292v-6l-11.25-.283-11.25-.283zM11.556 95.583C10.49 96.362 10.14 97 10.777 97c.638 0 1.023.563.856 1.25-.168.688-.116.912.114.5.231-.412 1.282-.75 2.336-.75 2.195 0 2.497-1.274.664-2.795-.884-.734-1.823-.623-3.191.378m-6.226.835c.369.96.67 3.059.67 4.664S6.349 104 6.776 104c1.149 0 .19-7.903-1.052-8.67-.677-.419-.82-.023-.394 1.088m16.943 6.32c.098 2.111.491 2.898 1.129 2.26 1.217-1.217 1.724-4.194.596-3.497-.455.282-1.063-.054-1.352-.745-.288-.691-.456.201-.373 1.982M.355 109.5c-.003 4.95.166 7.101.376 4.78.209-2.321.212-6.371.005-9-.206-2.629-.378-.73-.381 4.22m18.863 4.523c-1.172 1.876-1.117 1.931.759.759 1.113-.695 2.023-1.605 2.023-2.023 0-1.443-1.524-.752-2.782 1.264m-10.405.66c.721.289 1.584.253 1.916-.079s-.258-.568-1.312-.525c-1.165.048-1.402.285-.604.604M0 187.5c0 37.858.22 68.613.49 68.344.663-.663.697-135.99.034-136.653C.236 118.903 0 149.642 0 187.5M20 125c0 1.253 1.061 1.253 3 0 1.213-.784 1.069-.972-.75-.985-1.238-.008-2.25.435-2.25.985m124.408 2.5c-1.517 2.316-1.517 2.684 0 5 2.066 3.152 5.928 3.286 8.035.277 1.966-2.806 1.963-4.228-.014-6.206-2.381-2.38-6.138-1.945-8.021.929m-128.179-.312c.218.653.931 1.365 1.584 1.583.731.244.954-.214.581-1.187-.698-1.818-2.765-2.196-2.165-.396m9.974 1.666c-1.059.671-1.052 1.026.035 1.929 1.033.857 1.333.669 1.333-.838 0-1.07-.016-1.938-.035-1.93s-.62.386-1.333.839M14 131c0 .55.45 1 1 1s1-.45 1-1-.45-1-1-1-1 .45-1 1m180.745 8.25c-.257.688-.112 2.15.323 3.25.645 1.629.804 1.397.862-1.25.073-3.38-.38-4.145-1.185-2M28 143c0 .55.423 1 .941 1s1.219-.45 1.559-1-.084-1-.941-1-1.559.45-1.559 1m58.1 1.705c.729 1.212 1.54 1.989 1.803 1.726s-.333-1.255-1.324-2.205c-1.722-1.649-1.744-1.628-.479.479M26 149c0 .55.45 1 1 1s1-.45 1-1-.45-1-1-1-1 .45-1 1m130.5 2.068c-1.65 1.057-2.487 1.924-1.861 1.927s2.202-.88 3.5-1.962c2.973-2.477 2.258-2.461-1.639.035m-62.059.377c1.068.855 2.38 1.555 2.917 1.555 1.27 0 .703-.462-2.358-1.92-2.357-1.122-2.389-1.102-.559.365m-55.246 14.11c-1.08 1.223-1.037 1.746.25 3.033 1.407 1.406 1.705 1.405 3.126-.017 1.397-1.396 1.405-1.738.072-3.071-1.805-1.804-1.807-1.804-3.448.055M188 165c0 .55.45 1 1 1s1-.45 1-1-.45-1-1-1-1 .45-1 1m-148 2c0 .55.45 1 1 1s1-.45 1-1-.45-1-1-1-1 .45-1 1m42.953 2.556c-.849 1.023-1.383 5.468-1.558 12.969-.229 9.796-.009 11.73 1.552 13.658 1.597 1.972 2.136 2.1 4.436 1.052 2.232-1.017 2.617-1.825 2.617-5.49v-4.298l3.889.371c5.338.509 8.111-1.15 8.111-4.853 0-2.957-.016-2.965-6-2.965-5.333 0-6-.222-6-2 0-1.794.667-2 6.465-2 5.441 0 6.634-.317 7.535-2 .76-1.421.76-2.579 0-4-.953-1.781-2.094-2-10.413-2-7.234 0-9.634.351-10.634 1.556m31.589.045c-2.438 2.437-1.833 26.187.708 27.787 2.921 1.839 5.206-.432 5.545-5.513l.296-4.419 3.844.366c5.315.507 8.268-1.233 7.875-4.639-.291-2.522-.654-2.701-6.06-2.983-4.882-.255-5.75-.587-5.75-2.204 0-1.655.883-1.943 6.75-2.2 6.184-.271 6.777-.489 7.077-2.601.597-4.21-1.37-5.195-10.378-5.195-6.282 0-8.696.39-9.907 1.601m30.675-.351c-.565.688-1.353 6.304-1.75 12.481-.615 9.576-.479 11.602.929 13.75.907 1.385 2.202 2.512 2.877 2.504 3.111-.039 4.239-2.075 4.727-8.531l.5-6.622 5.5 7.266c3.025 3.997 5.385 7.641 5.245 8.1-.141.458 1.285.189 3.168-.597 1.883-.787 3.573-1.28 3.755-1.096.909.919-.431-26.117-1.349-27.223-1.362-1.641-5.465-1.661-6.479-.032-.428.688-.673 3.95-.544 7.25l.235 6-2.266-2.608c-1.246-1.435-3.975-4.697-6.065-7.25-3.8-4.643-6.55-5.742-8.483-3.392m-100.068 4.354c-1.822 2.061-.649 3.039 1.303 1.086.852-.851 1.548-1.804 1.548-2.119 0-1.05-1.485-.512-2.851 1.033M45.5 177c-.34.55.084 1 .941 1S48 177.55 48 177s-.423-1-.941-1-1.219.45-1.559 1M160 207c0 .55.45 1 1 1s1-.45 1-1-.45-1-1-1-1 .45-1 1"/><path fill="#1976D2" fill-opacity=".379" fill-rule="evenodd" d="M100.365 68.089c-5.463 1.583-12.676 7.199-15.836 12.329L81.5 85.336l-.3 23.824c-.274 21.652-.127 24.216 1.605 28.133 2.787 6.3 7.31 10.949 13.692 14.074l5.634 2.759 24.684-.313c23.164-.294 24.937-.448 28.78-2.504 4.728-2.53 9.531-7.675 12.382-13.263 1.785-3.5 2.016-6.232 2.256-26.722.26-22.209.203-22.966-2.122-28.112-1.394-3.083-4.269-6.941-6.896-9.254-7.038-6.195-11.131-6.972-36.147-6.868-11.862.05-22.979.499-24.703.999m-.136 21.748c-.976.62-1.208 5.556-1 21.212l.271 20.404 2.847 1.001c4.109 1.444 5.22-.667 5.18-9.844l-.034-7.61H120v-8h-11.799l-.354-4.459-.355-4.458 5.925-.292c5.483-.269 5.993-.498 6.848-3.075 1.557-4.691-.27-5.718-10.137-5.701-4.746.009-9.2.379-9.899.822m28.728-.62c-.568 3.756-.684 42.347-.131 43.841.737 1.992 1.008 1.869 4.59-2.096 3.66-4.052 3.79-4.44 3.381-10.088l-.425-5.874h6.314c6.85 0 10.314-2.015 10.314-6 0-1.843-.667-2-8.5-2H136v-9l6.75-.015c8.285-.019 9.494-.697 9.074-5.09L151.5 89.5l-11.25-.283c-6.187-.155-11.269-.155-11.293 0m15.614 37.354c-1.977 1.978-1.98 3.4-.014 6.206 1.815 2.593 5.616 2.907 7.872.652 1.865-1.865 2.054-5.546.371-7.229-1.699-1.699-6.369-1.488-8.229.371M83.75 169.08c-1.524.888-1.75 2.689-1.75 13.935 0 12.063.137 12.988 2.083 14.03 3.098 1.657 5.917-1.273 5.917-6.15V187.1l5.75-.3c5.656-.295 5.75-.349 5.75-3.3s-.094-3.005-5.75-3.3c-4.932-.257-5.75-.577-5.75-2.25 0-1.709.716-1.95 5.8-1.95 3.19 0 6.34-.54 7-1.2 1.714-1.714 1.482-5.478-.382-6.193-2.581-.99-16.773-.631-18.668.473m31.257.627c-1.818 1.274-2.007 2.525-2.007 13.278 0 9.46.319 12.191 1.571 13.444 1.86 1.859 1.993 1.875 4.495.536 1.469-.786 1.934-2.109 1.934-5.5V187h5.481c4.978 0 5.537-.224 6.094-2.443.933-3.716-.199-4.557-6.134-4.557-4.774 0-5.441-.245-5.441-2 0-1.77.667-2 5.8-2 6.031 0 8.2-1.119 8.2-4.231 0-2.303-.754-2.527-10.243-3.045-5.602-.306-8.297-.034-9.75.983m30.743-.627c-1.524.888-1.75 2.689-1.75 13.935 0 12.025.142 12.991 2.064 14.019 3.648 1.953 4.936-.34 4.936-8.789v-7.509l6.086 7.882c3.347 4.335 6.648 8.201 7.336 8.59.689.39 2.225.027 3.415-.806 2.021-1.416 2.163-2.336 2.163-13.98 0-12.286-.036-12.481-2.47-13.59-4.052-1.847-5.53.269-5.53 7.918v6.505l-5.056-6.378c-4.822-6.083-7.665-8.913-8.885-8.847-.308.017-1.346.489-2.309 1.05"/><path fill="#1976D2" fill-opacity=".748" fill-rule="evenodd" d="M106.5 68.041c-8.687.839-11.305 1.885-16.52 6.596-8.188 7.397-8.48 8.634-8.48 35.863v24l2.793 4.751c3.497 5.95 5.9 8.23 12.207 11.588 4.88 2.597 5.498 2.669 25.743 2.983 12.951.202 22.808-.106 26.24-.819 8.407-1.745 14.337-6.267 18.31-13.965l3.336-6.462-.314-23.038L169.5 86.5l-2.911-5.254c-3.098-5.592-7.245-9.32-13.339-11.993-2.983-1.308-7.431-1.67-21.75-1.766-9.9-.067-21.15.182-25 .554m-6.041 9.839c-9.737 4.422-11.887 11.307-11.264 36.063.482 19.155 1.721 22.986 8.999 27.806 3.621 2.398 5.318 2.794 13.239 3.089l9.085.339 7.991-8.785c4.395-4.831 13.729-14.456 20.741-21.387 12.542-12.398 12.75-12.675 12.744-17.054-.012-9.7-3.997-16.685-11.453-20.071-3.51-1.595-6.802-1.836-25.041-1.836s-21.531.241-25.041 1.836m44.764 47.677c-2.775 1.943-2.877 5.789-.223 8.443 2.407 2.407 3.84 2.501 6.777.443 2.745-1.922 2.949-6.476.394-8.788-2.282-2.066-4.103-2.091-6.948-.098m-61.99 44.61c-1.89 1.89-1.701 24.2.219 25.793 2.967 2.463 5.028.838 5.353-4.219L89.11 187h5.322c10.038 0 10.543-6.227.52-6.404-5.154-.091-5.469-.244-5.764-2.801-.311-2.699-.296-2.706 7-3 7.054-.285 7.312-.383 7.312-2.795 0-2.472-.108-2.503-9.517-2.783-6.547-.195-9.901.101-10.75.95m31.203.138c-.275.718-.374 6.906-.218 13.75.27 11.929.373 12.458 2.464 12.756 2.714.386 4.677-2.912 4.094-6.881-.411-2.803-.343-2.845 5.154-3.135 5.248-.278 5.588-.454 5.886-3.045.312-2.709.233-2.75-5.25-2.75-5.518 0-5.566-.026-5.566-3v-3h6.393c4.982 0 6.531-.359 7.017-1.627 1.276-3.325-1.256-4.373-10.564-4.373-6.406 0-9.049.367-9.41 1.305m30.764-.105c-.796.796-1.2 5.128-1.2 12.878 0 12.286.756 14.496 4.702 13.745 1.497-.285 1.882-1.665 2.298-8.255l.5-7.913 6.314 8.173c3.472 4.494 6.847 8.165 7.5 8.157 3.392-.044 3.75-1.551 3.467-14.563L168.5 169.5h-3c-2.99 0-3.002.022-3.5 6.806l-.5 6.805-5.754-7.055c-5.656-6.934-8.107-8.295-10.546-5.856"/></svg>